PathFileType	4	(X/Y/Z)	./resultDataOpenSim/trcMotMarkerGrf/sub06/qtm-13-02.trc
DataRate	CameraRate	NumFrames	NumMarkers	Units	OrigDataRate	OrigDataStartFrame	OrigNumFrames
250.000000	250.000000	6	24	m	250.000000	403	537
Frame#	Time	L.Toe.Tip			R.Toe.Tip			L.Ankle.Lat			R.Ankle.Lat			L.Ankle.Med			R.Ankle.Med			L.Heel			R.Heel			L.Knee.Lat			R.Knee.Lat			L.Knee.Med			R.Knee.Med			L.Thigh.Upper			R.Thigh.Upper			L.ASIS			R.ASIS			V.Sacral			L.Acromium			R.Acromium			C7			L.Elbow			R.Elbow			L.Wrist.Lat			R.Wrist.Lat
		X1	Y1	Z1	X2	Y2	Z2	X3	Y3	Z3	X4	Y4	Z4	X5	Y5	Z5	X6	Y6	Z6	X7	Y7	Z7	X8	Y8	Z8	X9	Y9	Z9	X10	Y10	Z10	X11	Y11	Z11	X12	Y12	Z12	X13	Y13	Z13	X14	Y14	Z14	X15	Y15	Z15	X16	Y16	Z16	X17	Y17	Z17	X18	Y18	Z18	X19	Y19	Z19	X20	Y20	Z20	X21	Y21	Z21	X22	Y22	Z22	X23	Y23	Z23	X24	Y24	Z24

403	1.608	1.6499923	0.11331468	-0.18907016	0.96111975	0.035549929	0.0060270034	1.5252146	0.091122684	-0.20867947	0.85768647	0.12131373	0.036704665	1.5215442	0.10460663	-0.12490901	0.88570559	0.12982041	-0.049777308	1.4720924	0.030538486	-0.16428369	0.80098888	0.12827583	-0.021628469	1.4273851	0.45240596	-0.20237676	1.1028693	0.43280585	0.053913647	1.394192	0.43680416	-0.081370895	1.0806982	0.43027083	-0.076098177	1.2646539	0.8014022	-0.24588831	1.1696817	0.78988993	0.088092019	1.3191298	0.85436339	-0.18740693	1.2805428	0.84828627	0.058596548	1.1096813	0.91019971	-0.092489635	1.2020534	1.3363712	-0.26469422	1.2212565	1.3270337	0.091184571	1.128449	1.3568439	-0.081612557	1.0758915	1.0570461	-0.3120105	1.29982	1.0181813	0.1917235	1.1038139	0.82907487	-0.39613418	1.5221718	1.0868739	0.087910921
404	1.612	1.653614	0.10969148	-0.18751962	0.96146014	0.035617285	0.0061770486	1.5289505	0.088243961	-0.20814913	0.85998216	0.12325309	0.037209523	1.5249098	0.10174926	-0.12446536	0.88833793	0.13142221	-0.049166632	1.4747145	0.028377494	-0.16456817	0.80369963	0.13137865	-0.021253428	1.4337941	0.45133376	-0.20251381	1.109778	0.43145504	0.054226242	1.4007288	0.43599408	-0.08165456	1.0876721	0.42871399	-0.075766329	1.2717854	0.80019438	-0.24669424	1.1751894	0.78887707	0.087765103	1.3262907	0.85279135	-0.18800027	1.2874953	0.84693168	0.057975212	1.1166475	0.90877381	-0.093186548	1.2088639	1.3348832	-0.26588051	1.2269099	1.3256368	0.090265448	1.1346393	1.3553563	-0.082949151	1.0824194	1.0559914	-0.31290751	1.3047659	1.0164879	0.19093169	1.1087521	0.82779503	-0.39684743	1.5269197	1.0856116	0.087122296
405	1.616	1.656822	0.10551036	-0.1858896	0.96180578	0.035681306	0.0063282929	1.5322019	0.08517765	-0.20765747	0.86242332	0.12524934	0.037722045	1.5278512	0.098717261	-0.12402951	0.89117375	0.13303885	-0.048538032	1.4765324	0.026636878	-0.16481549	0.80663357	0.13460557	-0.020889525	1.4401731	0.4502529	-0.20267505	1.1168948	0.43003221	0.054616474	1.4073988	0.43517494	-0.082003627	1.0948508	0.42708993	-0.075383465	1.2789151	0.79898036	-0.24750954	1.1811399	0.78770509	0.087412258	1.3334856	0.8512246	-0.18861555	1.2944409	0.84556112	0.057233434	1.1239627	0.90723133	-0.093443586	1.2156894	1.3334068	-0.26707804	1.2325684	1.3242259	0.089311876	1.1408476	1.3538467	-0.084307997	1.0890842	1.0549646	-0.31385513	1.309583	1.0147572	0.19014774	1.1138885	0.82649813	-0.39752285	1.531598	1.0841702	0.086368841
406	1.62	1.6598433	0.10052429	-0.18416595	0.96214769	0.035728539	0.0064742694	1.5350492	0.082017493	-0.20722673	0.86503332	0.12730984	0.038244072	1.5305205	0.095601078	-0.12355617	0.89423802	0.13467335	-0.047888923	1.4777712	0.025491853	-0.16487082	0.80982273	0.13794814	-0.020558377	1.4464991	0.44913021	-0.20283816	1.1242074	0.42853117	0.05509506	1.4141965	0.43431543	-0.082396622	1.1022301	0.42536781	-0.074919235	1.2860508	0.79774052	-0.24832463	1.1877455	0.78632105	0.086980028	1.3407413	0.84967324	-0.18926594	1.3014209	0.84419551	0.056419209	1.1312737	0.90568634	-0.093801461	1.2225395	1.3319412	-0.26828237	1.2382346	1.3227985	0.088325337	1.1470702	1.3523084	-0.085680951	1.0958582	1.0539589	-0.31482709	1.3142827	1.0129902	0.18937331	1.1192268	0.82517761	-0.39816606	1.536211	1.0825534	0.085654522
407	1.624	1.6630099	0.094505564	-0.18254636	0.96247039	0.035748471	0.0066009459	1.5376874	0.078982366	-0.20687921	0.86781996	0.12943308	0.038771273	1.5332383	0.092581525	-0.12300907	0.89755703	0.1363234	-0.047207709	1.4788371	0.025077974	-0.16462127	0.81331216	0.14139727	-0.020281989	1.452785	0.44791995	-0.20298415	1.1317055	0.42694347	0.055664713	1.4211216	0.43336588	-0.08279267	1.1098089	0.42351288	-0.074343724	1.2932026	0.79645329	-0.24913836	1.1949997	0.78472935	0.086460083	1.3480746	0.84815945	-0.1899546	1.3084738	0.84283463	0.055615608	1.1383401	0.90422044	-0.094586035	1.2294233	1.3304829	-0.26948858	1.2439152	1.321354	0.087302057	1.1533001	1.3507345	-0.087068454	1.1026665	1.0529471	-0.3157597	1.3188585	1.0111906	0.18861407	1.1247736	0.82382153	-0.39878355	1.5407689	1.0807576	0.084984355
408	1.628	1.6666207	0.087453488	-0.18146574	0.96277773	0.035741275	0.0066926072	1.5404602	0.076396333	-0.20661594	0.87079071	0.13161025	0.039302632	1.5364651	0.089892555	-0.12242055	0.90116443	0.13797706	-0.046474467	1.4801475	0.025504218	-0.16409118	0.81715091	0.14495178	-0.020061431	1.4590969	0.44658549	-0.203095	1.1393949	0.42526339	0.056328919	1.4281541	0.43226807	-0.083152495	1.1175926	0.42151062	-0.073644557	1.3003832	0.79511112	-0.24996511	1.2028022	0.78295834	0.085863734	1.355446	0.84671325	-0.19065563	1.3156128	0.8414654	0.054885473	1.1449536	0.90291325	-0.096036874	1.2363368	1.32903	-0.27069802	1.2496089	1.3198956	0.086241611	1.1595234	1.3491467	-0.088486739	1.1094113	1.051889	-0.31657137	1.3233051	1.0093658	0.18787645	1.1305313	0.82242432	-0.39937468	1.5452807	1.078781	0.084357925
